Coordinates
version=1
nRows=16
nColumns=36
inDegrees=yes

Units are S.I. units (second, meters, Newtons, ...)
If the header above contains a line with 'inDegrees', this indicates whether rotational values are in degrees (yes) or radians (no).

endheader
time	pelvis_tilt	pelvis_list	pelvis_rotation	pelvis_tx	pelvis_ty	pelvis_tz	hip_flexion_r	hip_adduction_r	hip_rotation_r	knee_angle_r	knee_angle_r_beta	ankle_angle_r	subtalar_angle_r	mtp_angle_r	hip_flexion_l	hip_adduction_l	hip_rotation_l	knee_angle_l	knee_angle_l_beta	ankle_angle_l	subtalar_angle_l	mtp_angle_l	lumbar_extension	lumbar_bending	lumbar_rotation	arm_flex_r	arm_add_r	arm_rot_r	elbow_flex_r	pro_sup_r	arm_flex_l	arm_add_l	arm_rot_l	elbow_flex_l	pro_sup_l
      0.00000000	      0.92967487	     -0.85840691	      0.95365973	      0.87937197	      0.81874636	      0.76154985	     -7.35075288	      4.91354804	      4.77646073	      3.89965917	      0.06806189	      5.55076868	     -7.21440871	     -6.98032290	     27.75052688	     -0.01352911	      2.84462308	     32.72916607	      0.57123171	      3.21258178	    -11.34052657	     -6.98032290	     -9.47635668	      1.28519930	      2.61363859	      8.25902580	    -13.04469909	     -5.03748471	     25.27968215	     90.07094054	      7.09286200	    -10.25342786	      3.54510047	     13.25620126	     87.55527099
      0.01666670	     -0.04877508	     -2.04463071	      0.28155388	      0.88262527	      0.81121039	      0.75928598	     -8.62255105	      6.03222286	      6.68028353	      2.95170203	      0.05151692	      6.64253962	     -5.47065527	     -7.00908422	     30.41635902	     -1.65426541	      2.38783871	     28.72545917	      0.50135384	      2.64294982	     -9.40896926	     -7.00908422	     -8.19658559	      2.44156026	      4.02345460	      8.25914324	    -14.39577671	     -4.84785433	     25.96887186	     90.06719730	      6.78507252	     -9.54533488	      3.62652109	     12.04141800	     88.10804657
      0.03333330	     -0.36700595	     -1.73239979	      0.45794045	      0.88463226	      0.80650271	      0.75721713	    -10.81522429	      5.65777433	      7.94055405	      1.54748978	      0.02700879	      7.31270923	     -5.49731117	     -6.98118940	     30.77763871	     -0.99628891	      3.99937621	     21.64537547	      0.37778307	      2.57576042	     -9.12742156	     -6.98118940	     -7.46605299	      2.38678774	      3.79516490	      9.28423847	    -14.99559469	     -4.75808222	     26.44171617	     89.97869931	      6.27218472	     -9.80788678	      3.47611389	     10.58686453	     88.32621958
      0.05000000	     -0.67389407	     -1.43214322	      0.51798373	      0.88607541	      0.80171819	      0.75549351	    -12.29799728	      5.23631765	      7.00561256	      0.87358294	      0.01524690	      9.78449550	     -2.83129548	     -7.01206032	     30.81240002	     -0.76205077	      5.29082979	     14.29947964	      0.24957300	      4.24895817	     -7.20842642	     -7.01206032	     -6.83929597	      2.31925965	      3.49141015	     10.53093681	    -15.59896720	     -3.46868184	     26.89497853	     91.78493100	      5.59703973	    -10.04648497	      2.50734755	      9.49949662	     92.05244621
      0.06666670	     -0.94071331	     -1.33793238	      0.16509069	      0.88679112	      0.79756377	      0.75436433	    -13.46028638	      5.08682238	      7.41877673	      0.56155918	      0.00980106	     11.45154679	     -2.72169649	     -7.00816219	     30.80939165	     -0.98228042	      6.44373598	      8.49959617	      0.14834594	      6.14280912	     -5.64168956	     -7.00816219	     -6.52107734	      2.33145289	      3.81078828	     11.58272957	    -15.84522628	     -3.27786208	     27.84111465	     90.48065571	      4.97611740	    -10.19187736	      2.02196406	      9.01440421	     90.99584396
      0.08333330	     -0.76153239	     -1.24397968	      0.08200799	      0.88780479	      0.79292253	      0.75248041	    -14.90605955	      4.94304719	      6.98939992	      0.45788882	      0.00799167	     13.32474161	     -1.81541618	     -7.03909191	     30.56436092	     -1.05380702	      7.44810026	      4.91146302	      0.08572120	      7.53953419	     -4.48291878	     -7.03909191	     -6.76215104	      2.36558848	      3.84448891	     12.50322448	    -16.12366971	     -2.46480894	     29.41433479	     91.16562644	      4.59136214	    -10.32911408	      1.23398902	      8.60188797	     92.07361392
      0.10000000	     -0.58030503	     -0.94229675	      0.13592212	      0.88931464	      0.78789983	      0.75010623	    -16.40375989	      4.58891947	      6.98648904	      0.42934546	      0.00749349	     14.75436749	     -2.00565623	     -7.05767834	     30.45653774	     -0.68369709	      8.23471783	      3.53772935	      0.06174503	      8.34172602	     -4.37809852	     -7.05767834	     -6.85824382	      2.09884384	      3.82999121	     13.13440414	    -16.17954343	     -2.14063528	     30.62200951	     91.51662075	      4.35458727	    -10.47295878	      0.66327848	      8.20724455	     92.72080253
      0.11666670	     -0.49649442	     -0.40391933	      0.44723509	      0.89135533	      0.78403169	      0.74771253	    -17.95033262	      4.01133771	      6.97227572	      0.48769690	      0.00851192	     16.20585597	     -2.61604551	     -7.06253717	     30.53690413	      0.24539582	      8.67700149	      4.03466670	      0.07041822	      8.77010455	     -4.62431257	     -7.06253717	     -6.65527832	      1.49154546	      3.91557963	     13.30143286	    -16.18088630	     -2.05776879	     31.09602415	     91.61400320	      4.25420895	    -10.68085204	      0.47170770	      8.00629388	     92.89341330
      0.13333330	      0.41468741	      0.32687067	      0.81878808	      0.89368544	      0.78308162	      0.74543751	    -20.53060738	      3.21385678	      6.75419031	      0.62766345	      0.01095479	     16.61227604	     -3.34609262	     -7.07918540	     29.51866099	      1.56812205	      8.95990138	      5.48375403	      0.09570956	      8.04219781	     -5.77065710	     -7.07918540	     -7.54659509	      0.67309670	      3.73419317	     13.34971687	    -16.33138728	     -1.93036422	     32.59012553	     91.90656079	      4.40489257	    -10.80867672	     -0.16911766	      7.35728032	     93.49288639
      0.15000000	      0.94143507	      1.13072564	      1.12747833	      0.89724491	      0.78290026	      0.74306549	    -22.70907747	      2.29501440	      6.46737789	      1.14718155	      0.02002210	     16.37015921	     -4.39725236	     -7.25427853	     28.81897386	      3.07701309	      8.92793043	      7.85114449	      0.13702832	      6.82028530	     -6.89826080	     -7.25427853	     -7.78207856	     -0.34949855	      4.21673210	     12.34707027	    -16.32818729	     -3.85603586	     34.09479735	     95.13299783	      4.71257952	    -10.87949819	     -4.33461860	      6.76385325	    100.60212633
      0.16666670	      1.37293482	      1.83708584	      1.32988915	      0.90095254	      0.78269946	      0.74075292	    -24.38261083	      1.44340136	      5.94038403	      2.56746255	      0.04481067	     15.20791196	     -5.74000213	     -7.28976441	     28.06352639	      4.47581735	      8.78183652	     10.41475523	      0.18177177	      5.04479538	     -7.79772428	     -7.28976441	     -7.90325187	     -1.27684823	      4.22093468	     11.87204591	    -16.42024483	     -3.27649012	     34.59039029	     94.13885758	      4.54905647	    -11.14438902	     -4.29983627	      6.22285787	     99.88867394
      0.18333330	      1.64627820	      2.45866354	      1.42208186	      0.90414464	      0.78212449	      0.73911234	    -25.25447755	      0.65420140	      5.18654813	      5.02291467	      0.08766640	     13.29200893	     -7.29693262	     -7.30942642	     27.31023967	      5.64535001	      8.58833986	     12.72602567	      0.22211105	      3.14462872	     -8.21741216	     -7.30942642	     -7.91614074	     -2.09402387	      4.15366503	     11.33013690	    -16.28319625	     -3.29932866	     34.94795440	     93.24737365	      4.30511994	    -11.39592769	     -4.33126037	      5.77954231	     98.98065633
      0.20000000	      1.89932394	      3.03106899	      1.60485953	      0.90697968	      0.78212941	      0.73794343	    -25.49355103	     -0.04183085	      4.06340676	      8.27994266	      0.14451226	     10.57870589	     -8.76485965	     -7.33773233	     26.41386071	      6.71145740	      8.86117648	     14.64059806	      0.25552664	      1.25983516	     -8.95445802	     -7.33773233	     -7.99865788	     -2.79195253	      3.94035639	     10.71851568	    -16.07909986	     -3.56889170	     35.23612586	     93.27223849	      4.08793966	    -11.65711916	     -4.33642519	      5.69302364	     98.68780349
      0.21666670	      2.30831009	      3.53191391	      1.77892826	      0.90987999	      0.78438491	      0.73725882	    -25.00785009	     -0.70222582	      2.68507483	     12.76031822	      0.22270957	      6.68232596	    -10.29363927	     -7.36360108	     25.20191306	      7.59329692	      9.12902719	     16.25575176	      0.28371639	      0.03891706	     -9.42925069	     -7.36360108	     -8.30196697	     -3.38628360	      3.72009397	     10.09207146	    -15.76038745	     -4.10595602	     35.36914800	     92.84193295	      4.13124780	    -11.84257528	     -4.01138679	      5.40434742	     98.05455650
      0.23333330	      2.92849497	      3.87644923	      1.96705662	      0.91272065	      0.79057347	      0.73712424	    -23.36385332	     -1.37070266	      0.88972640	     19.28751983	      0.33663073	      1.13731871	    -11.76014989	     -7.37044584	     23.59419295	      8.22959443	      9.31442871	     17.67157042	      0.30842709	     -0.43020344	     -9.81895951	     -7.37044584	     -8.96426503	     -3.71904417	      3.05600813	      9.79807216	    -15.28711845	     -4.43638061	     35.28628304	     93.05455364	      3.85258017	    -12.02878958	     -4.20518011	      5.83791442	     98.13215589
      0.25000000	      3.46224066	      4.11863084	      1.97651179	      0.91477972	      0.80030349	      0.73728465	    -20.09054276	     -2.32052624	     -0.87078712	     27.83618809	      0.48583313	     -5.86815922	    -13.37410485	     -7.41890483	     21.81303203	      8.63196880	      9.38351140	     18.75526684	      0.32734116	     -0.14742958	    -10.22965962	     -7.41890483	     -9.44124392	     -4.01825926	      2.72236453	      9.48745281	    -14.73568386	     -5.71914162	     34.46102173	     97.53877055	      3.91841589	    -12.05853323	     -5.83256494	      6.07686739	    100.79906858
